<?xml version="1.0" standalone="no"?>
<!DOCTYPE svg PUBLIC "-//W3C//DTD SVG 20010904//EN"
 "http://www.w3.org/TR/2001/REC-SVG-20010904/DTD/svg10.dtd">
<svg version="1.0" xmlns="http://www.w3.org/2000/svg"
 width="700.000000pt" height="700.000000pt" viewBox="0 0 700.000000 700.000000"
 preserveAspectRatio="xMidYMid meet">
<metadata>
Created by potrace 1.14, written by Peter Selinger 2001-2017
</metadata>
<g transform="translate(0.000000,700.000000) scale(0.100000,-0.100000)"
fill="#000000" stroke="none">
<path d="M1645 6693 c-44 -7 -105 -18 -135 -25 -30 -6 -64 -13 -75 -15 -51 -9
-260 -86 -349 -128 -314 -148 -595 -395 -780 -682 -52 -81 -146 -265 -171
-333 -59 -165 -98 -309 -110 -410 -4 -30 -11 -82 -15 -115 -8 -64 -5 -414 4
-454 3 -12 8 -42 10 -65 7 -58 23 -136 42 -209 9 -34 17 -66 18 -72 32 -144
183 -487 302 -685 173 -289 429 -626 690 -910 23 -25 70 -76 105 -115 81 -89
578 -587 724 -725 125 -119 348 -327 377 -351 18 -16 165 -151 293 -270 33
-31 77 -71 99 -90 21 -19 53 -47 70 -64 18 -16 54 -50 82 -74 27 -25 76 -70
110 -100 33 -31 102 -94 154 -141 52 -47 124 -112 160 -145 177 -163 242 -220
250 -220 7 0 71 56 189 164 45 41 204 185 227 206 105 95 218 199 262 240 30
28 59 55 66 60 21 18 109 98 221 200 215 197 229 210 555 515 172 160 707 693
813 810 38 41 83 91 101 110 96 105 222 257 394 475 40 51 171 239 219 315
162 257 306 562 358 760 3 8 13 49 24 90 11 41 22 89 25 105 3 17 8 40 10 53
33 164 42 501 17 667 -48 322 -154 585 -348 865 -9 14 -39 52 -66 85 -301 368
-729 607 -1217 681 -87 13 -394 16 -491 5 -191 -22 -388 -73 -565 -146 -97
-40 -269 -128 -295 -151 -8 -8 -19 -14 -23 -14 -14 0 -168 -112 -246 -179 -41
-35 -110 -100 -152 -144 l-77 -80 -83 84 c-217 221 -436 370 -710 483 -79 32
-223 82 -264 91 -11 2 -50 11 -87 20 -188 44 -532 58 -712 28z"/>
</g>
</svg>
